<svg width="25" height="25" viewBox="0 0 25 25" fill="none" xmlns="http://www.w3.org/2000/svg">
<path d="M7.29297 18.7507C6.14714 18.7507 5.22005 19.6882 5.22005 20.834C5.22005 21.9798 6.14714 22.9173 7.29297 22.9173C8.4388 22.9173 9.3763 21.9798 9.3763 20.834C9.3763 19.6882 8.4388 18.7507 7.29297 18.7507ZM1.04297 2.08398V4.16732H3.1263L6.8763 12.0736L5.47005 14.6257C5.30339 14.9173 5.20964 15.2611 5.20964 15.6257C5.20964 16.7715 6.14714 17.709 7.29297 17.709H19.793V15.6257H7.73047C7.58464 15.6257 7.47005 15.5111 7.47005 15.3652L7.5013 15.2402L8.4388 13.5423H16.1992C16.9805 13.5423 17.668 13.1152 18.0221 12.4694L21.7513 5.70898C21.8346 5.56315 21.8763 5.38607 21.8763 5.20898C21.8763 4.63607 21.4076 4.16732 20.8346 4.16732H5.42839L4.44922 2.08398H1.04297ZM17.7096 18.7507C16.5638 18.7507 15.6367 19.6882 15.6367 20.834C15.6367 21.9798 16.5638 22.9173 17.7096 22.9173C18.8555 22.9173 19.793 21.9798 19.793 20.834C19.793 19.6882 18.8555 18.7507 17.7096 18.7507Z" fill="#481C00"/>
</svg>
